<?xml version="1.0" encoding="utf-8"?>
<!-- Generator: Adobe Illustrator 16.0.4, SVG Export Plug-In . SVG Version: 6.00 Build 0)  -->
<!DOCTYPE svg PUBLIC "-//W3C//DTD SVG 1.1//EN" "http://www.w3.org/Graphics/SVG/1.1/DTD/svg11.dtd">
<svg version="1.1" id="Layer_1" xmlns="http://www.w3.org/2000/svg" xmlns:xlink="http://www.w3.org/1999/xlink" x="0px" y="0px"
	 width="160px" height="160px" viewBox="0 0 160 160" enable-background="new 0 0 160 160" xml:space="preserve">
<g id="Layer_1_1_">
	<path fill="#565999" d="M70.243,92.67l0.014-0.016c0.012,0.014,0.017,0.031,0.028,0.043c0.392,0.391,1.023,0.391,1.415,0
		c0.39-0.391,0.39-1.022-0.001-1.413c-0.025-0.025-0.06-0.036-0.087-0.06l0.024-0.024c-0.534-0.396-1.054-0.818-1.536-1.302
		c-5.459-5.459-5.459-14.339,0-19.798s14.339-5.459,19.798,0s5.459,14.339,0,19.798c-0.508,0.51-1.057,0.953-1.619,1.365
		l0.016,0.019c-0.391,0.392-0.391,1.022,0,1.415c0.352,0.351,0.889,0.369,1.278,0.09l0.009,0.01
		c0.041-0.029,0.078-0.064,0.118-0.094c0.003-0.003,0.007-0.004,0.01-0.006c0-0.002,0-0.004,0.001-0.004
		c0.557-0.42,1.096-0.873,1.604-1.381c6.248-6.248,6.248-16.378,0-22.626s-16.379-6.248-22.627,0s-6.248,16.378,0,22.626
		C69.181,91.809,69.702,92.258,70.243,92.67z"/>
	<path fill="#565999" d="M101.92,58.08c-12.105-12.106-31.733-12.106-43.84,0s-12.106,31.732,0,43.84
		c1.632,1.632,3.415,3.014,5.287,4.195c0.184,0.207,0.443,0.344,0.742,0.344c0.553,0,1-0.447,1-1c0-0.33-0.17-0.609-0.417-0.791
		l0.033-0.053c-1.858-1.146-3.622-2.5-5.231-4.109c-11.307-11.307-11.307-29.705,0-41.012c11.307-11.307,29.705-11.307,41.012,0
		c11.307,11.307,11.307,29.705,0,41.012c-1.617,1.617-3.39,2.979-5.257,4.126l0.021,0.034c-0.248,0.182-0.42,0.461-0.42,0.793
		c0,0.553,0.446,1,1,1c0.229,0,0.43-0.09,0.598-0.219c1.939-1.211,3.785-2.633,5.473-4.32
		C114.025,89.812,114.025,70.187,101.92,58.08z"/>
	<path fill="#565999" d="M124.548,35.452c-24.604-24.603-64.492-24.603-89.096,0c-24.603,24.604-24.603,64.491,0,89.096
		c3.706,3.706,7.77,6.83,12.066,9.413c0.169,0.134,0.374,0.227,0.606,0.227c0.553,0,1-0.447,1-1c0-0.354-0.192-0.646-0.467-0.826
		l0.023-0.036c-4.213-2.515-8.19-5.566-11.815-9.19c-23.784-23.783-23.784-62.483,0-86.268c23.784-23.785,62.482-23.784,86.268,0
		c23.785,23.784,23.784,62.482,0,86.268c-3.607,3.606-7.564,6.646-11.756,9.154l0.021,0.034c-0.31,0.17-0.525,0.485-0.525,0.864
		c-0.001,0.553,0.445,1,0.999,1c0.22,0,0.412-0.086,0.577-0.205l0.002,0.002c4.308-2.588,8.381-5.721,12.096-9.437
		C149.15,99.943,149.15,60.056,124.548,35.452z"/>
	<path fill="#565999" d="M113.234,113.234c18.354-18.354,18.354-48.114,0-66.469c-18.354-18.354-48.114-18.354-66.469,0
		c-18.354,18.354-18.354,48.114,0,66.469c2.665,2.664,5.583,4.912,8.66,6.799c0.183,0.189,0.436,0.31,0.719,0.31
		c0.553,0,1-0.446,1-1c0-0.329-0.17-0.606-0.415-0.79l0.028-0.045c-3.055-1.838-5.944-4.055-8.577-6.688
		c-17.546-17.547-17.546-46.095,0-63.641c17.545-17.545,46.093-17.545,63.64,0c17.545,17.546,17.545,46.094,0,63.641
		c-2.614,2.613-5.479,4.813-8.51,6.646l0.035,0.056c-0.271,0.18-0.461,0.472-0.461,0.82c-0.001,0.553,0.446,1,0.999,1
		c0.3,0,0.56-0.137,0.741-0.344C107.686,118.121,110.584,115.885,113.234,113.234z"/>
	<path fill="#565999" d="M136.568,23.432c-31.242-31.241-81.896-31.241-113.137,0C-7.811,54.674-7.811,105.328,23.43,136.57
		c4.819,4.818,10.106,8.878,15.708,12.205l0.007-0.012c0.15,0.09,0.315,0.154,0.503,0.154c0.553,0,1-0.447,1-1
		c0-0.348-0.188-0.639-0.456-0.816l0.018-0.028c-5.483-3.246-10.655-7.208-15.364-11.917c-30.413-30.413-30.413-79.896,0-110.31
		c30.412-30.412,79.896-30.412,110.308,0c30.412,30.413,30.412,79.896,0,110.31c-4.713,4.712-9.891,8.678-15.377,11.926l0.029,0.047
		c-0.259,0.182-0.438,0.466-0.438,0.807c-0.001,0.553,0.446,1,0.999,1c0.259,0,0.49-0.104,0.668-0.267
		c5.535-3.31,10.765-7.331,15.533-12.099C167.811,105.327,167.811,54.674,136.568,23.432z"/>
	<path fill="#565999" d="M79.997,160c0.553,0,1-0.447,1-1l0.002-76.146c0.408-0.146,0.793-0.371,1.121-0.698
		c1.172-1.171,1.172-3.07,0-4.242s-3.072-1.172-4.242,0c-1.172,1.172-1.171,3.071,0,4.242c0.327,0.327,0.714,0.554,1.121,0.698
		L78.997,159C78.997,159.553,79.444,160,79.997,160z"/>
</g>
<g id="Layer_2">
</g>
</svg>
