<?xml version="1.0" encoding="utf-8"?>
<!-- Generator: Adobe Illustrator 16.0.4, SVG Export Plug-In . SVG Version: 6.00 Build 0)  -->
<!DOCTYPE svg PUBLIC "-//W3C//DTD SVG 1.1//EN" "http://www.w3.org/Graphics/SVG/1.1/DTD/svg11.dtd">
<svg version="1.1" id="Layer_1" xmlns="http://www.w3.org/2000/svg" xmlns:xlink="http://www.w3.org/1999/xlink" x="0px" y="0px"
	 width="160px" height="160px" viewBox="0 0 160 160" enable-background="new 0 0 160 160" xml:space="preserve">
<g id="Layer_1_1_">
	<path fill="#BDA671" d="M136.684,136.448C151.092,121.98,160,102.031,160,80c0-44.183-35.816-80-80-80C35.817,0,0,35.817,0,80
		c0,22.077,8.943,42.064,23.404,56.541c0.023,0.025,0.047,0.048,0.073,0.07C37.951,151.062,57.932,160,80,160
		c22.021,0,41.964-8.9,56.43-23.3C136.529,136.632,136.614,136.549,136.684,136.448z M135.812,134.413l-21.891-21.899
		C122.018,104.068,127,92.62,127,80c0-12.608-4.975-24.048-13.057-32.489l21.891-21.899C149.536,39.674,158,58.862,158,80
		C158,101.148,149.525,120.35,135.812,134.413z M111.727,111.88C103.584,119.982,92.367,125,80,125
		c-12.371,0-23.592-5.02-31.734-13.127c-0.045-0.046-0.09-0.091-0.135-0.137C40.021,103.594,35,92.373,35,80
		c0-12.354,5.006-23.559,13.094-31.698c0.068-0.07,0.139-0.139,0.207-0.208C56.441,40.006,67.646,35,80,35
		c12.354,0,23.561,5.007,31.7,13.095c0.071,0.071,0.143,0.143,0.214,0.215C119.997,56.448,125,67.65,125,80
		c0,12.367-5.018,23.584-13.12,31.727C111.829,111.777,111.777,111.829,111.727,111.88z M134.421,24.196l-21.892,21.9
		C104.085,37.99,92.629,33,80,33c-12.619,0-24.066,4.982-32.51,13.076L25.596,24.181C39.659,10.471,58.854,2,80,2
		C101.152,2,120.355,10.477,134.421,24.196z M24.182,25.596L46.075,47.49C37.982,55.934,33,67.382,33,80
		c0,12.626,4.988,24.079,13.089,32.523l-21.899,21.89C10.474,120.35,2,101.148,2,80C2,58.854,10.471,39.659,24.182,25.596z
		 M25.604,135.827l21.9-21.892C55.945,122.021,67.388,127,80,127c12.617,0,24.062-4.98,32.506-13.072l21.891,21.899
		C120.334,149.533,101.143,158,80,158C58.858,158,39.666,149.533,25.604,135.827z"/>
</g>
<g id="Layer_2">
</g>
</svg>
