<?xml version="1.0" encoding="utf-8"?>
<!-- Generator: Adobe Illustrator 16.0.4, SVG Export Plug-In . SVG Version: 6.00 Build 0)  -->
<!DOCTYPE svg PUBLIC "-//W3C//DTD SVG 1.1//EN" "http://www.w3.org/Graphics/SVG/1.1/DTD/svg11.dtd">
<svg version="1.1" id="Layer_1" xmlns="http://www.w3.org/2000/svg" xmlns:xlink="http://www.w3.org/1999/xlink" x="0px" y="0px"
	 width="160px" height="160px" viewBox="0 0 160 160" enable-background="new 0 0 160 160" xml:space="preserve">
<g id="Layer_1_1_">
</g>
<g id="Layer_2">
	<linearGradient id="SVGID_1_" gradientUnits="userSpaceOnUse" x1="80.0005" y1="160" x2="80.0005" y2="4.882812e-04">
		<stop  offset="0" style="stop-color:#DFECF2"/>
		<stop  offset="1" style="stop-color:#E2DFF1"/>
	</linearGradient>
	<path fill="url(#SVGID_1_)" d="M80,2c43.01,0,78,34.99,78,78s-34.99,78-78,78S2,123.01,2,80S36.99,2,80,2 M80,0
		C35.816,0,0,35.817,0,80c0,44.184,35.816,80,80,80c44.182,0,80-35.816,80-80C160,35.817,124.182,0,80,0L80,0z M136.712,128.47
		c-10.993-12.782-33.874-22.131-41.351-23.354c-0.551-0.427-1.105-2.558-1.332-4.86c6.051-0.154,19.775-1.296,26.529-8.181
		l2.346-2.392l-3.217-0.932c-0.386-0.121-9.904-3.334-7.992-22.195c2.285-22.68-3.311-37.168-15.356-39.837
		c-1.771-0.999-3.737-1.802-5.866-2.394c-2.736-4.833-6.377-7.482-10.316-7.482c-0.482,0-0.975,0.04-1.462,0.117l-3.766,0.604
		l1.886,1.971c-0.47-0.068-0.942-0.108-1.406-0.108c-0.851,0-1.63,0.132-2.315,0.395l-3.605,1.373l1.375,0.926
		c-1.059,0.277-2.127,0.618-3.201,1.021l-0.224,0.088c-5.327,2.09-19.479,7.643-19.008,37.988
		c0.667,25.577-7.836,27.224-8.394,27.302l-5.4-0.252l4.092,3.715c0.364,0.34,8.89,8.112,27.203,8.576
		c-0.271,2.524-0.871,4.217-1.301,4.559c-7.475,1.223-30.348,10.568-41.342,23.35c0.816,0.816,1.176,1.113,1.446,1.383
		c10.37-12.127,32.942-21.602,40.274-22.768c2.717-0.432,3.021-7.262,3.054-8.504c-0.141,0.001-0.279,0.002-0.419,0.002
		c-18.932,0-27.55-8.059-27.55-8.059s11.097-0.148,10.335-29.334c-0.454-29.335,12.921-34.199,17.937-36.173
		c2.804-1.054,5.336-1.573,7.601-1.733c-0.605-0.491-1.313-1.019-2.162-1.59c0.486-0.186,1.031-0.263,1.604-0.263
		c2.951,0.001,6.624,2.059,6.624,2.059s-0.33-1.736-3.021-4.549c0.392-0.063,0.773-0.093,1.146-0.093
		c4.479,0,7.472,4.316,8.973,7.197c2.497,0.615,4.644,1.494,6.489,2.57c12.497,2.523,15.972,19.057,14.09,37.743
		c-2.128,20.976,9.425,24.319,9.425,24.319c-7.098,7.234-23.472,7.604-26.741,7.604c-0.147,0-0.27-0.002-0.36-0.002
		c-0.067,0.07-0.104,0.105-0.104,0.105s0.067,8.225,3.057,8.699c7.334,1.167,29.918,10.643,40.287,22.773
		C135.441,129.689,136.411,128.771,136.712,128.47z"/>
</g>
</svg>
