<?xml version="1.0" encoding="utf-8"?>
<!-- Generator: Adobe Illustrator 16.0.4, SVG Export Plug-In . SVG Version: 6.00 Build 0)  -->
<!DOCTYPE svg PUBLIC "-//W3C//DTD SVG 1.1//EN" "http://www.w3.org/Graphics/SVG/1.1/DTD/svg11.dtd">
<svg version="1.1" id="Layer_1" xmlns="http://www.w3.org/2000/svg" xmlns:xlink="http://www.w3.org/1999/xlink" x="0px" y="0px"
	 width="800px" height="800px" viewBox="0 0 800 800" enable-background="new 0 0 800 800" xml:space="preserve">
<g>
	<path fill="#A5C645" d="M61.404,514.929c0,27.279,22.112,49.371,49.379,49.371c27.27,0,49.381-22.092,49.381-49.371V308.125
		c0-27.261-22.111-49.375-49.381-49.375c-27.267,0-49.379,22.115-49.379,49.375V514.929z"/>
	<path fill="#A5C645" d="M738.596,514.929c0,27.279-22.097,49.371-49.372,49.371c-27.269,0-49.379-22.092-49.379-49.371V308.125
		c0-27.264,22.11-49.375,49.379-49.375c27.275,0,49.372,22.111,49.372,49.375V514.929z"/>
	<path fill="#A5C645" d="M620.787,268.077h-1.584H180.888h-1.584h-1.585v320.441c0,29.939,24.355,54.295,54.288,54.295h35.914
		v107.804c0,27.282,22.107,49.383,49.376,49.383c27.271,0,49.375-22.101,49.375-49.383V642.813h66.664v107.804
		c0,27.282,22.108,49.383,49.375,49.383c27.266,0,49.381-22.101,49.381-49.383V642.813h35.971c29.947,0,54.31-24.355,54.31-54.295
		V268.077H620.787z"/>
	<path fill="#A5C645" d="M509,73.074l34.499-62.912c1.822-3.324,0.605-7.494-2.718-9.316c-3.32-1.822-7.491-0.601-9.317,2.719
		l-34.83,63.521C467.386,54.111,434.571,46.83,399.9,46.83c-34.601,0-67.356,7.252-96.559,20.18L268.544,3.564
		c-1.821-3.32-5.988-4.541-9.315-2.719c-3.324,1.822-4.542,5.996-2.72,9.316l34.46,62.83
		c-67.72,34.974-113.486,101.495-113.486,177.85H622.34C622.34,174.544,576.642,108.071,509,73.074z M298.758,170.302
		c-10.292,0-18.633-8.337-18.633-18.636c0-10.285,8.341-18.632,18.633-18.632c10.278,0,18.633,8.347,18.633,18.632
		C317.391,161.965,309.036,170.302,298.758,170.302z M501.258,170.302c-10.288,0-18.64-8.337-18.64-18.636
		c0-10.285,8.352-18.632,18.64-18.632c10.281,0,18.626,8.347,18.626,18.632C519.884,161.965,511.539,170.302,501.258,170.302z"/>
</g>
</svg>
