<svg xmlns="http://www.w3.org/2000/svg" width="800" height="800" viewBox="0 0 800 800"><path fill="white" d="M61.404 514.93c0 27.278 22.112 49.37 49.38 49.37 27.27 0 49.38-22.092 49.38-49.37V308.124c0-27.26-22.11-49.375-49.38-49.375-27.268 0-49.38 22.115-49.38 49.375V514.93zM738.596 514.93c0 27.278-22.097 49.37-49.37 49.37-27.27 0-49.38-22.092-49.38-49.37V308.124c0-27.264 22.11-49.375 49.38-49.375 27.273 0 49.37 22.11 49.37 49.375V514.93zM620.787 268.077H177.72v320.44c0 29.94 24.354 54.295 54.287 54.295h35.914v107.805c0 27.28 22.108 49.383 49.377 49.383 27.27 0 49.375-22.102 49.375-49.383V642.812h66.664v107.805c0 27.28 22.107 49.383 49.375 49.383 27.267 0 49.382-22.102 49.382-49.383V642.812h35.97c29.948 0 54.312-24.354 54.312-54.295v-320.44h-1.587zM509 73.074l34.5-62.912c1.82-3.324.603-7.494-2.72-9.316-3.32-1.822-7.49-.6-9.316 2.72l-34.83 63.52C467.386 54.11 434.57 46.83 399.9 46.83c-34.602 0-67.356 7.252-96.56 20.18L268.544 3.564c-1.82-3.32-5.988-4.54-9.315-2.72-3.325 1.823-4.543 5.997-2.72 9.317l34.46 62.83c-67.72 34.975-113.487 101.496-113.487 177.85H622.34c0-76.296-45.697-142.77-113.34-177.766zm-210.242 97.228c-10.292 0-18.633-8.337-18.633-18.636 0-10.285 8.34-18.632 18.633-18.632 10.278 0 18.633 8.347 18.633 18.632 0 10.3-8.354 18.636-18.632 18.636zm202.5 0c-10.287 0-18.64-8.337-18.64-18.636 0-10.285 8.352-18.632 18.64-18.632 10.28 0 18.626 8.347 18.626 18.632 0 10.3-8.345 18.636-18.626 18.636z"/></svg>
