<svg xmlns="http://www.w3.org/2000/svg" width="40" height="36" viewBox="0 0 40 36"><path fill="white" d="M29.885 33.047c-4.667 2.696-11.084 2.973-17.54.206C7.118 31.03 2.78 27.136 0 22.688c1.334 1.112 2.892 2.002 4.56 2.78 6.667 3.125 13.333 2.91 18.024.01l-.008-.01c-6.672-5.116-12.344-11.79-16.57-17.238-.89-.89-1.558-2.002-2.225-3.003 5.117 4.67 13.236 10.565 16.127 12.234C13.79 11.01 8.34 3.004 8.563 3.226c9.676 9.787 18.685 15.348 18.685 15.348.298.168.527.308.713.433.196-.496.367-1.01.51-1.545C30.03 11.79 28.25 5.34 24.356 0c9.01 5.45 14.348 15.68 12.123 24.245-.06.23-.12.46-.19.683.026.03.054.063.08.097 4.446 5.56 3.224 11.454 2.668 10.343-2.413-4.723-6.88-3.28-9.15-2.32z"/></svg>
