<?xml version="1.0" encoding="utf-8"?>
<!-- Generator: Adobe Illustrator 16.0.4, SVG Export Plug-In . SVG Version: 6.00 Build 0)  -->
<!DOCTYPE svg PUBLIC "-//W3C//DTD SVG 1.1//EN" "http://www.w3.org/Graphics/SVG/1.1/DTD/svg11.dtd">
<svg version="1.1" id="Layer_1" xmlns="http://www.w3.org/2000/svg" xmlns:xlink="http://www.w3.org/1999/xlink" x="0px" y="0px"
	 width="160px" height="160px" viewBox="0 0 160 160" enable-background="new 0 0 160 160" xml:space="preserve">
<g id="Layer_1_1_">
</g>
<g id="Layer_2">
	<path fill="#565999" d="M80,1.961c43.077,0,78,34.923,78,78c0,36.496-25.07,67.131-58.93,75.641v-0.01v-3.591v-15.846v-11.332
		c0-6.023-2.065-10.452-6.196-13.288c2.589-0.251,4.966-0.596,7.13-1.044c2.163-0.447,4.452-1.097,6.868-1.944
		c2.413-0.843,4.579-1.85,6.493-3.021c1.914-1.166,3.756-2.686,5.523-4.553c1.766-1.867,3.243-3.979,4.44-6.344
		c1.194-2.363,2.142-5.201,2.835-8.508c0.695-3.312,1.045-6.957,1.045-10.937c0-7.713-2.51-14.282-7.536-19.705
		c2.287-5.972,2.038-12.463-0.75-19.481l-1.864-0.226c-0.139-0.016-0.287-0.023-0.449-0.023c-1.354,0-3.528,0.555-6.527,1.666
		c-3.359,1.244-7.131,3.286-11.309,6.12c-5.922-1.641-12.068-2.463-18.438-2.463c-6.418,0-12.54,0.822-18.363,2.463
		c-2.633-1.79-5.137-3.268-7.497-4.441c-2.367-1.167-4.258-1.965-5.675-2.387c-1.419-0.423-2.737-0.686-3.956-0.783
		c-0.809-0.066-1.425-0.101-1.851-0.101c-0.217,0-0.384,0.009-0.502,0.026c-0.349,0.047-0.597,0.1-0.746,0.15
		C38.958,43.063,38.71,49.559,41,55.481c-5.027,5.421-7.541,11.99-7.541,19.703c0,3.981,0.349,7.625,1.048,10.937
		c0.694,3.311,1.643,6.143,2.835,8.509c1.193,2.363,2.673,4.476,4.441,6.343c1.766,1.867,3.605,3.387,5.524,4.553
		c1.914,1.173,4.079,2.18,6.493,3.024c2.411,0.847,4.702,1.494,6.866,1.941c2.166,0.448,4.54,0.795,7.128,1.045
		c-4.081,2.782-6.12,7.213-6.12,13.287v2.024c-0.721,0.582-3.15,2.188-8.045,2.188c-0.774,0-1.611-0.04-2.513-0.131
		c-8.961-1.462-11.076-7.183-14.625-11.396c-2.581-3.061-8.235-4.789-11.224-4.789c-1.177,0-1.94,0.269-1.94,0.828
		c0,3.473,4.387,4.32,7.07,7.34c2.68,3.021,3.428,12.707,12.918,16.668c3.364,1.404,6.741,1.857,9.692,1.857
		c4.109,0,7.394-0.878,8.666-1.287v13.872v3.771v0.002C27.443,147.527,2,116.725,2,79.961C2,36.884,36.923,1.961,80,1.961 M80-0.039
		c-44.112,0-80,35.888-80,80c0,18.322,6.03,35.561,17.438,49.85c11.069,13.863,26.613,23.774,43.769,27.907
		c0.155,0.037,0.312,0.056,0.469,0.056c0.444,0,0.881-0.147,1.237-0.429c0.481-0.38,0.763-0.958,0.763-1.571v-3.771V138.13
		c0-0.639-0.306-1.239-0.822-1.616c-0.346-0.253-0.76-0.384-1.178-0.384c-0.205,0-0.412,0.031-0.612,0.097
		c-0.868,0.278-4.017,1.19-8.054,1.19c-3.214,0-6.216-0.573-8.922-1.703c-5.906-2.465-7.999-7.446-9.681-11.448
		c-0.802-1.906-1.493-3.554-2.512-4.701c-1.176-1.321-2.564-2.246-3.791-3.062c-1.109-0.737-1.85-1.262-2.284-1.757
		c2.67,0.197,7.187,1.734,9.144,4.057c0.67,0.797,1.295,1.662,1.957,2.58c2.772,3.844,5.914,8.201,13.875,9.499
		c0.041,0.007,0.081,0.013,0.121,0.017c0.93,0.095,1.843,0.142,2.714,0.142c5.453,0,8.322-1.842,9.302-2.634
		c0.47-0.381,0.743-0.951,0.743-1.557v-2.023c0-5.422,1.716-9.227,5.247-11.635c0.695-0.476,1.02-1.334,0.811-2.149
		s-0.907-1.413-1.745-1.494c-2.516-0.241-4.842-0.583-6.915-1.012c-2.063-0.427-4.287-1.058-6.609-1.871
		c-2.276-0.797-4.332-1.754-6.111-2.843c-1.757-1.068-3.476-2.487-5.115-4.221c-1.628-1.72-3.01-3.693-4.109-5.871
		c-1.114-2.211-2.011-4.91-2.663-8.018c-0.667-3.16-1.005-6.701-1.005-10.526c0-7.259,2.292-13.259,7.008-18.343
		c0.52-0.561,0.674-1.368,0.398-2.082c-1.976-5.11-1.864-10.803,0.329-16.934c0.361,0.009,0.859,0.039,1.485,0.091
		c1.07,0.086,2.263,0.323,3.549,0.707c1.289,0.384,3.093,1.146,5.361,2.264c2.297,1.142,4.74,2.59,7.258,4.302
		c0.335,0.228,0.728,0.346,1.124,0.346c0.182,0,0.364-0.024,0.542-0.075c5.624-1.584,11.62-2.388,17.821-2.388
		c6.155,0,12.181,0.805,17.905,2.391c0.176,0.049,0.355,0.072,0.533,0.072c0.396,0,0.789-0.118,1.123-0.345
		c4.027-2.733,7.688-4.718,10.879-5.899c3.621-1.342,5.209-1.542,5.834-1.542c0.08,0,0.154,0.003,0.223,0.011l0.65,0.078
		c2.222,6.152,2.324,11.699,0.322,16.926c-0.271,0.712-0.115,1.517,0.401,2.075c4.712,5.084,7.003,11.085,7.003,18.346
		c0,3.815-0.337,7.356-1.002,10.525c-0.654,3.12-1.55,5.816-2.663,8.018c-1.104,2.181-2.487,4.155-4.108,5.871
		c-1.639,1.73-3.358,3.15-5.111,4.219c-1.784,1.094-3.84,2.049-6.111,2.842c-2.326,0.818-4.551,1.447-6.613,1.874
		c-2.056,0.426-4.383,0.767-6.918,1.013c-0.838,0.081-1.533,0.678-1.744,1.49c-0.209,0.814,0.111,1.673,0.806,2.148
		c3.585,2.461,5.327,6.27,5.327,11.64v11.332v15.846v3.591c0,0.616,0.285,1.203,0.771,1.582c0.356,0.278,0.793,0.428,1.235,0.428
		c0.161,0,0.321-0.021,0.481-0.061C135.146,148.598,160,116.695,160,79.961C160,35.849,124.111-0.039,80-0.039L80-0.039z"/>
</g>
</svg>
