<?xml version="1.0" encoding="utf-8"?>
<!-- Generator: Adobe Illustrator 16.0.4, SVG Export Plug-In . SVG Version: 6.00 Build 0)  -->
<!DOCTYPE svg PUBLIC "-//W3C//DTD SVG 1.1//EN" "http://www.w3.org/Graphics/SVG/1.1/DTD/svg11.dtd">
<svg version="1.1" id="Layer_1" xmlns="http://www.w3.org/2000/svg" xmlns:xlink="http://www.w3.org/1999/xlink" x="0px" y="0px"
	 width="400px" height="400px" viewBox="-179.362 -171.917 400 400" enable-background="new -179.362 -171.917 400 400"
	 xml:space="preserve">
<g>
	<path fill="#434343" d="M135.787,59.603c-4.548-10.49-7.103-22.234-7.103-34.643c0-5.241,0.447-10.324,1.318-15.198
		c3.737-21.113,15.244-38.554,31.123-49.833c2.835-2.017,5.798-3.839,8.884-5.447c-21.397-33.733-56.204-38.933-67.164-40.074
		c-23.831-2.467-57.409,16.004-75.646,16.3H26.73c-18.238-0.311-51.808-18.767-75.662-16.3
		c-11.855,1.243-49.761,9.096-72.621,45.512c-8.027,12.776-14.205,29.083-16.744,49.833c-0.917,7.503-1.349,15.576-1.243,24.262
		c0.129,8.717,0.811,17.264,2.001,25.586c2.562,17.736,7.39,34.48,13.621,49.828c6.905,16.994,15.523,32.307,24.718,45.297
		c20.336,28.773,43.356,45.41,56.325,45.721c26.688,0.592,49.867-17.432,69.006-16.979c0.189,0.047,0.409,0.061,0.6,0.047h0.469
		c0.19,0.014,0.402,0,0.6-0.047c19.123-0.484,42.324,17.57,69.021,16.979c12.962-0.311,35.997-16.947,56.333-45.721
		c9.193-12.99,17.812-28.295,24.732-45.297c1.008-2.547,2.017-5.123,2.948-7.73c-19.889-6.201-36.245-21.754-45.062-42.113
		L135.787,59.603z M73.815-110.963c20.487-24.248,19.714-59.176,17.85-60.725c-1.864-1.569-35.723,4.653-56.72,28.109
		C13.95-120.124,15.254-84.396,17.111-82.851c1.834,1.55,36.232-3.851,56.711-28.113H73.815z"/>
</g>
</svg>
