<?xml version="1.0" encoding="utf-8"?>
<!-- Generator: Adobe Illustrator 16.0.4, SVG Export Plug-In . SVG Version: 6.00 Build 0)  -->
<!DOCTYPE svg PUBLIC "-//W3C//DTD SVG 1.1//EN" "http://www.w3.org/Graphics/SVG/1.1/DTD/svg11.dtd">
<svg version="1.1" id="Layer_1" xmlns="http://www.w3.org/2000/svg" xmlns:xlink="http://www.w3.org/1999/xlink" x="0px" y="0px"
	 width="902.168px" height="331.561px" viewBox="0 0 902.168 331.561" enable-background="new 0 0 902.168 331.561"
	 xml:space="preserve">
<symbol  id="logo_apollo_white" viewBox="-486.326 -165.779 972.652 331.559">
	<g>
		<polygon fill="#333333" points="-284.734,51.4 -309.045,51.4 -344.146,-39.696 -322.156,-39.696 -316.42,-24.265 
			-283.254,-24.265 -289.258,-7.19 -311.096,-7.19 -296.891,32.007 -271.621,-39.696 -249.633,-39.696 		"/>
		<path fill="#333333" d="M84.568-39.696V51.4h19.529v-74.024h38.516v-17.072H84.568z"/>
		<path fill="#333333" d="M197.132-39.696V51.4h19.531v-74.024h38.516v-17.072H197.132z"/>
		<path fill="#333333" d="M-23.599,35.075c16.152,0,29.293-13.14,29.293-29.292c0-16.151-13.141-29.292-29.293-29.292
			c-16.151,0-29.292,13.141-29.292,29.292C-52.891,21.938-39.75,35.075-23.599,35.075 M-23.599,52.9
			c-26.022,0-47.118-21.096-47.118-47.117c0-26.023,21.096-47.12,47.118-47.12S23.521-20.24,23.521,5.783S2.425,52.9-23.599,52.9
			L-23.599,52.9z"/>
		<path fill="#333333" d="M344.964,35.075c16.154,0,29.295-13.14,29.295-29.292c0-16.151-13.141-29.292-29.295-29.292
			c-16.152,0-29.291,13.141-29.291,29.292C315.673,21.938,328.812,35.075,344.964,35.075 M344.964,52.9
			c-26.021,0-47.119-21.096-47.119-47.117c0-26.023,21.1-47.12,47.119-47.12c26.023,0,47.121,21.097,47.121,47.12
			S370.988,52.9,344.964,52.9L344.964,52.9z"/>
		<path fill="#333333" d="M-150.334,51.4h-23.082h-3.312h-16.084v-91.099h19.396v31.352h23.082
			c16.189,0,29.314,13.685,29.314,29.874C-121.02,37.719-134.145,51.4-150.334,51.4z M-150.334,9.482h-23.082v24.09h23.082
			c6.336,0,11.486-5.711,11.486-12.045C-138.848,15.191-143.998,9.482-150.334,9.482z"/>
		<g>
			<path fill="#333333" d="M-209.559-67.344c-1.688,0-3.178-0.836-4.088-2.118c0,0-4.375-4.991-6.732-7.354
				c-9.979-9.979-21.6-17.812-34.533-23.282c-13.387-5.663-27.611-8.534-42.281-8.534c-14.672,0-28.896,2.871-42.281,8.534
				c-12.936,5.472-24.555,13.305-34.532,23.282c-9.979,9.981-17.813,21.601-23.285,34.534c-5.66,13.389-8.533,27.613-8.533,42.282
				s2.873,28.895,8.533,42.281c5.472,12.936,13.306,24.554,23.285,34.533c9.979,9.979,21.598,17.812,34.532,23.285
				c13.386,5.661,27.609,8.532,42.281,8.532c14.67,0,28.896-2.871,42.281-8.532c9.422-3.986,18.141-9.23,26.041-15.641
				c-0.422-1.243-0.658-2.576-0.658-3.963c0-6.77,5.488-12.258,12.256-12.258c6.771,0,12.258,5.488,12.258,12.258
				c0,6.771-5.487,12.257-12.258,12.257c-1.68,0-3.283-0.339-4.742-0.953c-20.467,16.782-46.645,26.858-75.178,26.858
				c-65.535,0-118.66-53.125-118.66-118.66s53.125-118.661,118.66-118.661c36.658,0,69.42,16.636,91.185,42.758
				c0.905,0.907,1.469,2.16,1.469,3.543C-204.541-69.587-206.785-67.344-209.559-67.344z"/>
		</g>
	</g>
	<polygon fill="none" points="486.326,-165.779 -486.326,-165.779 -486.326,165.779 486.326,165.779 	"/>
</symbol>
<g id="Layer_1_1_">
</g>
<g id="Layer_2">
	
		<use xlink:href="#logo_apollo_white"  width="972.652" height="331.559" id="XMLID_1_" x="-486.326" y="-165.779" transform="matrix(1 0 0 -1 486.3135 165.7803)" overflow="visible"/>
</g>
<g>
</g>
<g>
</g>
<g>
</g>
</svg>
