<?xml version="1.0" encoding="utf-8"?>
<!-- Generator: Adobe Illustrator 16.0.4, SVG Export Plug-In . SVG Version: 6.00 Build 0)  -->
<!DOCTYPE svg PUBLIC "-//W3C//DTD SVG 1.1//EN" "http://www.w3.org/Graphics/SVG/1.1/DTD/svg11.dtd">
<svg version="1.1" id="Layer_2" xmlns="http://www.w3.org/2000/svg" xmlns:xlink="http://www.w3.org/1999/xlink" x="0px" y="0px"
	 width="600px" height="600px" viewBox="0 0 600 600" enable-background="new 0 0 600 600" xml:space="preserve">
<g>
	<circle fill="#00D8FF" cx="300.239" cy="299.596" r="53.578"/>
	<path fill="#00D8FF" d="M569.381,246.203c-18.536-15.468-44.756-29.295-75.824-39.991c-6.228-2.144-12.679-4.171-19.315-6.087
		c1.096-4.46,2.098-8.857,2.986-13.172c14.886-72.259,4.317-128.575-27.582-146.97c-7.797-4.495-17.019-6.775-27.407-6.775
		c-29.929,0-67.854,18.658-106.782,52.537c-4.975,4.33-9.96,8.911-14.941,13.71c-3.324-3.182-6.639-6.252-9.94-9.184
		c-40.426-35.894-81.571-56.48-112.888-56.48c-10.725,0-20.218,2.347-28.215,6.977c-15.652,9.061-26.285,27.545-30.75,53.457
		c-4.098,23.791-2.93,53.411,3.378,85.656c1.271,6.498,2.758,13.129,4.433,19.866c-7.665,2.181-15.082,4.51-22.205,6.993
		C39.15,229.462,0.238,264.175,0.238,299.596c0,18.501,10.843,37.565,31.354,55.132c19.299,16.527,46.396,31.039,78.361,41.965
		c5.218,1.783,10.631,3.473,16.212,5.075c-1.803,7.277-3.373,14.424-4.7,21.416c-12.875,67.812-2.245,118.864,28.439,136.561
		c8.081,4.66,17.717,7.022,28.644,7.022c31.145,0,71.339-19.521,110.277-53.558c4.157-3.633,8.332-7.487,12.517-11.527
		c5.41,5.202,10.825,10.138,16.224,14.788c37.862,32.581,74.963,50.524,104.464,50.524c10.633,0,20.07-2.342,28.052-6.963
		c16.013-9.272,27.079-28.205,32.005-54.758c4.634-24.981,3.616-55.703-2.943-88.841c-1.038-5.238-2.241-10.592-3.596-16.043
		c3.802-1.122,7.526-2.279,11.154-3.481c70.032-23.203,113.537-60.492,113.537-97.313
		C600.237,281.509,589.567,263.046,569.381,246.203z M422.239,58.839c5.837,0,10.749,1.126,14.602,3.348
		c9.298,5.362,16.182,18.867,19.386,38.027c3.723,22.262,2.304,50.466-4.104,81.565c-0.804,3.907-1.713,7.889-2.696,11.925
		c-24.95-5.757-51.997-10.024-80.246-12.673c-16.523-23.511-33.628-44.866-50.71-63.291c4.606-4.428,9.217-8.662,13.812-12.663
		C365.555,76.124,399.184,58.839,422.239,58.839z M383.966,348.414c-9.434,16.359-19.04,31.862-28.744,46.433
		c-17.816,1.278-36.224,1.937-54.984,1.937c-18.769,0-36.89-0.568-54.261-1.684c-10.249-14.932-20.118-30.532-29.387-46.545
		c-9.274-16.019-17.827-32.192-25.588-48.3c7.783-16.239,16.321-32.479,25.508-48.41c9.246-16.031,18.983-31.516,29.061-46.282
		c17.951-1.37,36.28-2.085,54.667-2.085c18.545,0,36.865,0.703,54.727,2.062c9.926,14.646,19.615,30.094,28.92,46.167
		c9.464,16.346,18.098,32.415,25.877,48.102C401.967,315.881,393.339,332.16,383.966,348.414z M423.598,329.368
		c8.059,18.349,14.804,36.025,20.151,52.829c-17.381,3.965-36.17,7.163-55.979,9.544c6.2-9.83,12.339-20.008,18.399-30.519
		C412.292,350.605,418.104,339.968,423.598,329.368z M301.278,464.931c-12.145-13.121-24.264-27.637-36.073-43.185
		c11.422,0.442,23.107,0.668,35.032,0.668c12.248,0,24.36-0.278,36.281-0.815C324.802,437.534,313.013,452.033,301.278,464.931z
		 M213.26,392.256c-19.713-2.192-38.209-5.168-55.288-8.899c5.316-17.115,11.856-34.91,19.453-52.952
		c5.369,10.365,11.033,20.715,16.982,30.994C200.503,371.925,206.801,382.221,213.26,392.256z M177.354,270.067
		c-7.442-17.647-13.827-35.04-19.049-51.883c17.129-3.82,35.394-6.946,54.363-9.322c-6.296,9.824-12.431,19.894-18.362,30.176
		C188.366,249.339,182.713,259.7,177.354,270.067z M300.517,136.059c11.812,12.799,23.653,27.102,35.308,42.63
		c-11.744-0.556-23.622-0.844-35.585-0.844c-11.883,0-23.676,0.278-35.329,0.815C276.537,163.326,288.474,149.045,300.517,136.059z
		 M406.067,238.863c-5.94-10.258-12.041-20.277-18.262-30.022c19.104,2.414,37.447,5.623,54.723,9.57
		c-5.168,16.553-11.613,33.879-19.201,51.652C417.905,259.778,412.152,249.37,406.067,238.863z M147.256,174.956
		c-5.717-29.217-6.849-55.63-3.273-76.383c3.086-17.917,9.596-30.567,18.332-35.625c4.044-2.341,9.217-3.528,15.374-3.528
		c24.758,0,60.597,18.697,95.869,50.016c2.989,2.653,5.991,5.432,9.001,8.308c-17.46,18.749-34.675,40.058-51.086,63.219
		c-28.214,2.598-55.2,6.791-80.1,12.45C149.817,187.151,148.437,180.99,147.256,174.956z M118.244,372.438
		c-28.923-9.888-53.122-22.743-69.979-37.179c-14.441-12.367-22.395-25.031-22.395-35.665c0-26.499,43.645-53.576,86.897-68.656
		c6.581-2.294,13.483-4.456,20.655-6.487c7.519,24.458,17.371,49.978,29.222,75.728c-12.052,26.193-22.035,52.105-29.622,76.895
		C127.936,375.606,123,374.063,118.244,372.438z M178.548,541.135c-6.374,0-11.703-1.21-15.84-3.594
		c-22.954-13.238-24.607-64.574-16.062-109.576c1.227-6.458,2.692-13.105,4.386-19.901c24.443,5.414,51.568,9.344,80.827,11.706
		c16.581,23.354,33.936,44.798,51.514,63.637c-3.82,3.68-7.628,7.188-11.418,10.503C238.128,523.48,203.209,541.135,178.548,541.135
		z M453.998,421.408c13.023,65.796,0.442,106.479-16.76,116.438c-4.028,2.331-9.145,3.514-15.208,3.514
		c-10.897,0-41.259-4.319-87.744-44.322c-4.988-4.292-10.02-8.886-15.068-13.754c16.838-18.398,33.72-39.835,50.318-63.886
		c29.046-2.589,56.459-6.808,81.219-12.52C451.975,411.817,453.06,416.664,453.998,421.408z M478.639,372.578
		c-3.273,1.085-6.634,2.132-10.061,3.149c-7.547-23.934-17.751-49.46-30.396-76.057c11.974-25.819,21.822-51.065,29.185-74.855
		c6.132,1.776,12.094,3.65,17.85,5.632c28.149,9.691,51.576,21.944,67.744,35.435c13.959,11.648,21.646,23.621,21.646,33.713
		C574.605,319.433,544.575,350.731,478.639,372.578z"/>
</g>
</svg>
