<?xml version="1.0" encoding="utf-8"?>
<!-- Generator: Adobe Illustrator 16.0.4, SVG Export Plug-In . SVG Version: 6.00 Build 0)  -->
<!DOCTYPE svg PUBLIC "-//W3C//DTD SVG 1.1//EN" "http://www.w3.org/Graphics/SVG/1.1/DTD/svg11.dtd">
<svg version="1.1" id="Layer_1" xmlns="http://www.w3.org/2000/svg" xmlns:xlink="http://www.w3.org/1999/xlink" x="0px" y="0px"
	 width="800px" height="800px" viewBox="0 0 800 800" enable-background="new 0 0 800 800" xml:space="preserve">
<g>
	<polygon fill="#DD0031" points="400,13.319 400,13.319 400,13.319 40,141.697 94.909,617.701 400,786.681 400,786.681 400,786.681 
		705.091,617.701 760,141.697 	"/>
	<polygon fill="#C3002F" points="400,13.319 400,99.162 400,98.775 400,490.483 400,490.483 400,786.681 400,786.681 
		705.091,617.701 760,141.697 	"/>
	<path fill="#FFFFFF" d="M400,98.775L174.952,603.395l0,0h83.909l0,0l45.242-112.911h191.021l45.241,112.911l0,0h83.91l0,0
		L400,98.775L400,98.775L400,98.775L400,98.775L400,98.775z M465.735,420.881H334.264L400,262.729L465.735,420.881z"/>
</g>
</svg>
